<?xml version="1.0" encoding="UTF-8" standalone="no"?>
<!DOCTYPE svg PUBLIC "-//W3C//DTD SVG 1.1//EN" "http://www.w3.org/Graphics/SVG/1.1/DTD/svg11.dtd">
<!-- Generated by graphviz version 2.40.1 (20161225.0304)
 -->
<!-- Title: state transitions Pages: 1 -->
<svg width="857pt" height="388pt" viewBox="0.00 0.00 856.82 388.00" xmlns="http://www.w3.org/2000/svg"
    xmlns:xlink="http://www.w3.org/1999/xlink">
    <g id="graph0" class="graph" transform="scale(1 1) rotate(0) translate(4 384)">
        <title>state transitions</title>
        <polygon fill="#ffffff" stroke="transparent" points="-4,4 -4,-384 784,-384 784,4 -4,4" />
        <g id="clust1" class="cluster state regular">
            <title>cluster_reg_fstate</title>
            <path fill="none" stroke="#000000" stroke-width="2"
                d="M20,-8C20,-8 758,-8 758,-8 764,-8 770,-14 770,-20 770,-20 770,-360 770,-360 770,-366 764,-372 758,-372 758,-372 20,-372 20,-372 14,-372 8,-366 8,-360 8,-360 8,-20 8,-20 8,-14 14,-8 20,-8" />
            <text text-anchor="start" x="362.8234" y="-353.2" font-family="Helvetica,sans-Serif" font-size="12.00"
                fill="#000000">reg_fstate</text>
        </g>
        <!-- reg_fstate -->
        <!-- WAIT_READ -->
        <g id="node2" class="node state regular">
            <title>WAIT_READ</title>
            <polygon fill="#ffffff" fill-opacity="0.003922" stroke="transparent" stroke-width="2"
                points="396.5,-334 305.5,-334 305.5,-298 396.5,-298 396.5,-334" />
            <text text-anchor="start" x="316.5014" y="-312.2" font-family="Helvetica,sans-Serif" font-size="12.00"
                fill="#000000">WAIT_READ</text>
            <path fill="none" stroke="#000000" stroke-width="2"
                d="M317.8333,-299C317.8333,-299 384.1667,-299 384.1667,-299 389.8333,-299 395.5,-304.6667 395.5,-310.3333 395.5,-310.3333 395.5,-321.6667 395.5,-321.6667 395.5,-327.3333 389.8333,-333 384.1667,-333 384.1667,-333 317.8333,-333 317.8333,-333 312.1667,-333 306.5,-327.3333 306.5,-321.6667 306.5,-321.6667 306.5,-310.3333 306.5,-310.3333 306.5,-304.6667 312.1667,-299 317.8333,-299" />
        </g>
        <!-- WAIT_READ&#45;&gt;WAIT_READ -->
        <g id="edge3" class="edge transition">
            <title>WAIT_READ&#45;&gt;WAIT_READ</title>
            <path fill="none" stroke="#000000"
                d="M396.7453,-320.839C409.1005,-320.5837 418.5,-318.9707 418.5,-316 418.5,-313.9112 413.853,-312.4937 406.7991,-311.7474" />
            <polygon fill="#000000" stroke="#000000"
                points="406.9322,-308.2493 396.7453,-311.161 406.5245,-315.2374 406.9322,-308.2493" />
            <text text-anchor="start" x="420" y="-330" font-family="Helvetica,sans-Serif" font-size="10.00"
                fill="#000000">not (bridge_uart_read_data[8]) &#160;&#160;</text>
            <text text-anchor="start" x="420" y="-318" font-family="Helvetica,sans-Serif" font-size="10.00"
                fill="#000000">not (bridge_uart_read_data[7]) &#160;&#160;</text>
        </g>
        <!-- READ_UART -->
        <g id="node3" class="node state regular">
            <title>READ_UART</title>
            <polygon fill="#ffffff" fill-opacity="0.003922" stroke="transparent" stroke-width="2"
                points="574,-240 480,-240 480,-204 574,-204 574,-240" />
            <text text-anchor="start" x="490.6694" y="-218.2" font-family="Helvetica,sans-Serif" font-size="12.00"
                fill="#000000">READ_UART</text>
            <path fill="none" stroke="#000000" stroke-width="2"
                d="M492.3333,-205C492.3333,-205 561.6667,-205 561.6667,-205 567.3333,-205 573,-210.6667 573,-216.3333 573,-216.3333 573,-227.6667 573,-227.6667 573,-233.3333 567.3333,-239 561.6667,-239 561.6667,-239 492.3333,-239 492.3333,-239 486.6667,-239 481,-233.3333 481,-227.6667 481,-227.6667 481,-216.3333 481,-216.3333 481,-210.6667 486.6667,-205 492.3333,-205" />
        </g>
        <!-- WAIT_READ&#45;&gt;READ_UART -->
        <g id="edge2" class="edge transition">
            <title>WAIT_READ&#45;&gt;READ_UART</title>
            <path fill="none" stroke="#000000"
                d="M379.6753,-297.8696C399.2846,-285.7482 426.0384,-269.7474 450.397,-257 458.5788,-252.7183 467.3859,-248.419 476.0118,-244.3714" />
            <polygon fill="#000000" stroke="#000000"
                points="477.6569,-247.4668 485.2626,-240.0909 474.7172,-241.114 477.6569,-247.4668" />
            <text text-anchor="start" x="440" y="-266" font-family="Helvetica,sans-Serif" font-size="10.00"
                fill="#000000">bridge_uart_read_data[7] &#160;&#160;</text>
        </g>
        <!-- RESET_ERROR -->
        <g id="node6" class="node state regular">
            <title>RESET_ERROR</title>
            <polygon fill="#ffffff" fill-opacity="0.003922" stroke="transparent" stroke-width="2"
                points="293.5,-240 182.5,-240 182.5,-204 293.5,-204 293.5,-240" />
            <text text-anchor="start" x="193.5006" y="-218.2" font-family="Helvetica,sans-Serif" font-size="12.00"
                fill="#000000">RESET_ERROR</text>
            <path fill="none" stroke="#000000" stroke-width="2"
                d="M194.8333,-205C194.8333,-205 281.1667,-205 281.1667,-205 286.8333,-205 292.5,-210.6667 292.5,-216.3333 292.5,-216.3333 292.5,-227.6667 292.5,-227.6667 292.5,-233.3333 286.8333,-239 281.1667,-239 281.1667,-239 194.8333,-239 194.8333,-239 189.1667,-239 183.5,-233.3333 183.5,-227.6667 183.5,-227.6667 183.5,-216.3333 183.5,-216.3333 183.5,-210.6667 189.1667,-205 194.8333,-205" />
        </g>
        <!-- WAIT_READ&#45;&gt;RESET_ERROR -->
        <g id="edge1" class="edge transition">
            <title>WAIT_READ&#45;&gt;RESET_ERROR</title>
            <path fill="none" stroke="#000000"
                d="M310.8568,-297.8977C302.0344,-293.0366 293.0501,-287.3429 285.397,-281 274.2219,-271.738 263.8656,-259.4832 255.7024,-248.5431" />
            <polygon fill="#000000" stroke="#000000"
                points="258.3333,-246.2069 249.652,-240.1335 252.6511,-250.295 258.3333,-246.2069" />
            <text text-anchor="start" x="285" y="-266" font-family="Helvetica,sans-Serif" font-size="10.00"
                fill="#000000">bridge_uart_read_data[8] &#160;&#160;</text>
        </g>
        <!-- READ_UART&#45;&gt;WAIT_READ -->
        <g id="edge5" class="edge transition">
            <title>READ_UART&#45;&gt;WAIT_READ</title>
            <path fill="none" stroke="#000000"
                d="M558.4713,-240.3306C563.9398,-245.0293 568.8691,-250.5985 572,-257 576.6864,-266.582 578.9275,-272.889 572,-281 561.3503,-293.4691 468.6066,-304.7158 406.6956,-310.9282" />
            <polygon fill="#000000" stroke="#000000"
                points="406.2699,-307.4532 396.6619,-311.9183 406.9573,-314.4193 406.2699,-307.4532" />
            <text text-anchor="start" x="580" y="-272" font-family="Helvetica,sans-Serif" font-size="10.00"
                fill="#000000">not (fifo_shift==3) &#160;&#160;</text>
            <text text-anchor="start" x="580" y="-260" font-family="Helvetica,sans-Serif" font-size="10.00"
                fill="#000000">bridge_uart_acknowledge &#160;&#160;</text>
        </g>
        <!-- READ_UART&#45;&gt;READ_UART -->
        <g id="edge6" class="edge transition">
            <title>READ_UART&#45;&gt;READ_UART</title>
            <path fill="none" stroke="#000000"
                d="M574.0851,-226.8322C586.5552,-226.556 596,-224.9453 596,-222 596,-219.9291 591.3306,-218.518 584.2234,-217.7666" />
            <polygon fill="#000000" stroke="#000000"
                points="584.2741,-214.2636 574.0851,-217.1678 583.8613,-221.2514 584.2741,-214.2636" />
            <text text-anchor="start" x="600" y="-219" font-family="Helvetica,sans-Serif" font-size="10.00"
                fill="#000000">not (bridge_uart_acknowledge) &#160;&#160;</text>
        </g>
        <!-- FIFO_STATUS -->
        <g id="node4" class="node state regular">
            <title>FIFO_STATUS</title>
            <polygon fill="#ffffff" fill-opacity="0.003922" stroke="transparent" stroke-width="2"
                points="451.5,-146 348.5,-146 348.5,-110 451.5,-110 451.5,-146" />
            <text text-anchor="start" x="359.8326" y="-124.2" font-family="Helvetica,sans-Serif" font-size="12.00"
                fill="#000000">FIFO_STATUS</text>
            <path fill="none" stroke="#000000" stroke-width="2"
                d="M360.8333,-111C360.8333,-111 439.1667,-111 439.1667,-111 444.8333,-111 450.5,-116.6667 450.5,-122.3333 450.5,-122.3333 450.5,-133.6667 450.5,-133.6667 450.5,-139.3333 444.8333,-145 439.1667,-145 439.1667,-145 360.8333,-145 360.8333,-145 355.1667,-145 349.5,-139.3333 349.5,-133.6667 349.5,-133.6667 349.5,-122.3333 349.5,-122.3333 349.5,-116.6667 355.1667,-111 360.8333,-111" />
        </g>
        <!-- READ_UART&#45;&gt;FIFO_STATUS -->
        <g id="edge4" class="edge transition">
            <title>READ_UART&#45;&gt;FIFO_STATUS</title>
            <path fill="none" stroke="#000000"
                d="M502.5131,-203.8759C482.6597,-189.1812 454.4993,-168.3381 432.7153,-152.2145" />
            <polygon fill="#000000" stroke="#000000"
                points="434.5318,-149.2046 424.4117,-146.0685 430.3673,-154.831 434.5318,-149.2046" />
            <text text-anchor="start" x="479" y="-178" font-family="Helvetica,sans-Serif" font-size="10.00"
                fill="#000000">fifo_shift==3 &#160;&#160;</text>
            <text text-anchor="start" x="479" y="-166" font-family="Helvetica,sans-Serif" font-size="10.00"
                fill="#000000">bridge_uart_acknowledge &#160;&#160;</text>
        </g>
        <!-- FIFO_STATUS&#45;&gt;WAIT_READ -->
        <g id="edge7" class="edge transition">
            <title>FIFO_STATUS&#45;&gt;WAIT_READ</title>
            <path fill="none" stroke="#000000"
                d="M348.1342,-129.4715C248.038,-133.0064 38,-144.1048 38,-175 38,-269 38,-269 38,-269 38,-294.7277 205.5165,-307.9663 295.449,-313.2198" />
            <polygon fill="#000000" stroke="#000000"
                points="295.3041,-316.7171 305.4871,-313.7919 295.7025,-309.7285 295.3041,-316.7171" />
            <text text-anchor="start" x="43" y="-225" font-family="Helvetica,sans-Serif" font-size="10.00"
                fill="#000000">bridge_uart_read_data[0] &#160;&#160;</text>
            <text text-anchor="start" x="43" y="-213" font-family="Helvetica,sans-Serif" font-size="10.00"
                fill="#000000">bridge_uart_acknowledge &#160;&#160;</text>
        </g>
        <!-- FIFO_STATUS&#45;&gt;FIFO_STATUS -->
        <g id="edge9" class="edge transition">
            <title>FIFO_STATUS&#45;&gt;FIFO_STATUS</title>
            <path fill="none" stroke="#000000"
                d="M451.5182,-132.7988C464.1211,-132.4434 473.5,-130.8438 473.5,-128 473.5,-126.0005 468.8632,-124.6161 461.7292,-123.8467" />
            <polygon fill="#000000" stroke="#000000"
                points="461.7191,-120.3392 451.5182,-123.2012 461.2774,-127.3252 461.7191,-120.3392" />
            <text text-anchor="start" x="478" y="-125" font-family="Helvetica,sans-Serif" font-size="10.00"
                fill="#000000">not (bridge_uart_acknowledge) &#160;&#160;</text>
        </g>
        <!-- WRITE_FIFO -->
        <g id="node5" class="node state regular">
            <title>WRITE_FIFO</title>
            <polygon fill="#ffffff" fill-opacity="0.003922" stroke="transparent" stroke-width="2"
                points="523,-52 429,-52 429,-16 523,-16 523,-52" />
            <text text-anchor="start" x="439.67" y="-30.2" font-family="Helvetica,sans-Serif" font-size="12.00"
                fill="#000000">WRITE_FIFO</text>
            <path fill="none" stroke="#000000" stroke-width="2"
                d="M441.3333,-17C441.3333,-17 510.6667,-17 510.6667,-17 516.3333,-17 522,-22.6667 522,-28.3333 522,-28.3333 522,-39.6667 522,-39.6667 522,-45.3333 516.3333,-51 510.6667,-51 510.6667,-51 441.3333,-51 441.3333,-51 435.6667,-51 430,-45.3333 430,-39.6667 430,-39.6667 430,-28.3333 430,-28.3333 430,-22.6667 435.6667,-17 441.3333,-17" />
        </g>
        <!-- FIFO_STATUS&#45;&gt;WRITE_FIFO -->
        <g id="edge8" class="edge transition">
            <title>FIFO_STATUS&#45;&gt;WRITE_FIFO</title>
            <path fill="none" stroke="#000000"
                d="M414.6536,-109.8759C426.1138,-95.7014 442.1994,-75.806 455.024,-59.944" />
            <polygon fill="#000000" stroke="#000000"
                points="457.8259,-62.0454 461.3914,-52.0685 452.3825,-57.6443 457.8259,-62.0454" />
            <text text-anchor="start" x="447" y="-84" font-family="Helvetica,sans-Serif" font-size="10.00"
                fill="#000000">not (bridge_uart_read_data[0]) &#160;&#160;</text>
            <text text-anchor="start" x="447" y="-72" font-family="Helvetica,sans-Serif" font-size="10.00"
                fill="#000000">bridge_uart_acknowledge &#160;&#160;</text>
        </g>
        <!-- WRITE_FIFO&#45;&gt;WAIT_READ -->
        <g id="edge10" class="edge transition">
            <title>WRITE_FIFO&#45;&gt;WAIT_READ</title>
            <path fill="none" stroke="#000000"
                d="M523.1464,-38.3838C571.2865,-44.2012 639,-56.7025 639,-81 639,-154.5 639,-154.5 639,-154.5 639,-208.1109 719.8909,-158.9802 749,-204 770.5222,-237.286 740.2111,-264.878 704,-281 677.5299,-292.7851 499.2076,-306.1578 406.6025,-312.4149" />
            <polygon fill="#000000" stroke="#000000"
                points="406.3053,-308.9269 396.5619,-313.0881 406.7737,-315.9112 406.3053,-308.9269" />
            <text text-anchor="start" x="650" y="-162" font-family="Helvetica,sans-Serif" font-size="10.00"
                fill="#000000">bridge_uart_acknowledge &#160;&#160;</text>
        </g>
        <!-- WRITE_FIFO&#45;&gt;WRITE_FIFO -->
        <g id="edge11" class="edge transition">
            <title>WRITE_FIFO&#45;&gt;WRITE_FIFO</title>
            <path fill="none" stroke="#000000"
                d="M523.0851,-38.8322C535.5552,-38.556 545,-36.9453 545,-34 545,-31.9291 540.3306,-30.518 533.2234,-29.7666" />
            <polygon fill="#000000" stroke="#000000"
                points="533.2741,-26.2636 523.0851,-29.1678 532.8613,-33.2514 533.2741,-26.2636" />
            <text text-anchor="start" x="550" y="-31" font-family="Helvetica,sans-Serif" font-size="10.00"
                fill="#000000">not (bridge_uart_acknowledge) &#160;&#160;</text>
        </g>
        <!-- RESET_ERROR&#45;&gt;WAIT_READ -->
        <g id="edge12" class="edge transition">
            <title>RESET_ERROR&#45;&gt;WAIT_READ</title>
            <path fill="none" stroke="#000000"
                d="M182.2875,-237.7536C159.393,-244.7821 137.4293,-252.4811 134.184,-257 127.9619,-265.6639 127.2686,-272.8787 134.184,-281 144.5535,-293.1777 234.4747,-304.4279 295.2098,-310.735" />
            <polygon fill="#000000" stroke="#000000"
                points="295.1327,-314.2452 305.4366,-311.7792 295.8438,-307.2814 295.1327,-314.2452" />
            <text text-anchor="start" x="134" y="-266" font-family="Helvetica,sans-Serif" font-size="10.00"
                fill="#000000">bridge_uart_acknowledge &#160;&#160;</text>
        </g>
        <!-- RESET_ERROR&#45;&gt;RESET_ERROR -->
        <g id="edge13" class="edge transition">
            <title>RESET_ERROR&#45;&gt;RESET_ERROR</title>
            <path fill="none" stroke="#000000"
                d="M293.7324,-226.756C306.3044,-226.3275 315.5,-224.7422 315.5,-222 315.5,-220.0719 310.9539,-218.7157 303.8844,-217.9315" />
            <polygon fill="#000000" stroke="#000000"
                points="303.946,-214.4278 293.7324,-217.244 303.473,-221.4118 303.946,-214.4278" />
            <text text-anchor="start" x="320" y="-219" font-family="Helvetica,sans-Serif" font-size="10.00"
                fill="#000000">not (bridge_uart_acknowledge) &#160;&#160;</text>
        </g>
    </g>
</svg>